<svg xmlns="http://www.w3.org/2000/svg" xmlns:svgjs="http://svgjs.com/svgjs" xmlns:xlink="http://www.w3.org/1999/xlink" id="SvgjsSvg1053" width="288" height="288" version="1.1"><g id="SvgjsG1055"><svg xmlns="http://www.w3.org/2000/svg" width="288" height="288" viewBox="0 0 48 48"><path fill="#fff" d="M13 33h13v-3H13Zm19 0h3V15h-3Zm-19-7.5h13v-3H13Zm0-7.5h13v-3H13ZM6.6 42q-1.2 0-2.1-.9-.9-.9-.9-2.1V9q0-1.2.9-2.1.9-.9 2.1-.9h34.8q1.2 0 2.1.9.9.9.9 2.1v30q0 1.2-.9 2.1-.9.9-2.1.9Zm0-3h34.8V9H6.6v30Zm0 0V9v30Z" class="color000 svgShape"/></svg></g></svg>