<svg id="SvgjsSvg1053" width="288" height="288" xmlns="http://www.w3.org/2000/svg" version="1.1" xmlns:xlink="http://www.w3.org/1999/xlink" xmlns:svgjs="http://svgjs.com/svgjs"><defs id="SvgjsDefs1054"></defs><g id="SvgjsG1055"><svg xmlns="http://www.w3.org/2000/svg" viewBox="0 0 48 48" width="288" height="288"><path d="M13 33h13v-3H13Zm19 0h3V15h-3Zm-19-7.5h13v-3H13Zm0-7.5h13v-3H13ZM6.6 42q-1.2 0-2.1-.9-.9-.9-.9-2.1V9q0-1.2.9-2.1.9-.9 2.1-.9h34.8q1.2 0 2.1.9.9.9.9 2.1v30q0 1.2-.9 2.1-.9.9-2.1.9Zm0-3h34.8V9H6.6v30Zm0 0V9v30Z" fill="#ffffff" class="color000 svgShape"></path></svg></g></svg>