<svg xmlns="http://www.w3.org/2000/svg" width="48" height="48"><g><title>Layer 1</title><path id="svg_1" fill="#fff" d="m34.55,47.15q5.2,0 8.9,-3.7t3.7,-8.9l-3.6,0q0,3.75 -2.625,6.375t-6.375,2.625l0,3.6zm-33.7,-33.7l3.6,0q0,-3.75 2.625,-6.375t6.375,-2.625l0,-3.6q-5.2,0 -8.9,3.7t-3.7,8.9zm5.95,27.75q-5.2,-5.2 -5.2,-12.5t5.2,-12.5l7.45,-7.4q1.5,-1.55 3.675,-1.625q2.175,-0.075 3.875,1.225q0.05,0.05 0.2,0.275q0.15,0.225 0.35,0.475l4.95,-4.95q1.65,-1.65 3.95,-1.7q2.3,-0.05 3.95,1.6q0.15,0.2 0.275,0.425q0.125,0.225 0.125,0.375q1.3,-1 3.3,-0.875q2,0.125 3.5,1.575q1.1,1.15 1.4,2.7q0.3,1.55 -0.2,3.1q0.25,0.1 0.475,0.25q0.225,0.15 0.425,0.35q1.6,1.65 1.625,3.825q0.025,2.175 -1.275,3.725l-0.8,0.8q0.25,0.1 0.45,0.25t0.35,0.3q1.25,1.6 1.275,3.75q0.025,2.15 -1.625,3.8l-12.7,12.75q-5.2,5.2 -12.5,5.2t-12.5,-5.2zm2.9,-2.9q2,1.95 4.5,2.95q2.5,1 5.075,1t5.075,-1q2.5,-1 4.45,-2.95l12.7,-12.75q0.45,-0.45 0.45,-1.075t-0.45,-1.025q-0.45,-0.45 -1.05,-0.45q-0.6,0 -1.05,0.45l-7.05,7.05l-2.15,-2.1l11.3,-11.3q0.45,-0.45 0.45,-1.075t-0.45,-1.075q-0.45,-0.45 -1.05,-0.45q-0.6,0 -1.05,0.45l-9.9,9.9l-2.1,-2.1l12,-12.05q0.45,-0.45 0.45,-1.075t-0.4,-1.025q-0.5,-0.45 -1.1,-0.45q-0.6,0 -1.05,0.45l-12.05,12l-2.1,-2.1l9.2,-9.2q0.45,-0.45 0.45,-1.075t-0.45,-1.025q-0.45,-0.45 -1.075,-0.45t-1.075,0.45l-13.2,13.2q1.05,2.6 0.65,5.3q-0.4,2.7 -2.3,4.8l-2.1,-2.1q1.65,-1.85 1.65,-4.25t-1.65,-4.25l6,-6q0.45,-0.45 0.45,-1.075t-0.4,-1.025q-0.5,-0.45 -1.1,-0.45q-0.6,0 -1.05,0.45l-7.45,7.4q-1.95,1.95 -2.95,4.45q-1,2.5 -1,5.075t1,5.075q1,2.5 2.95,4.5z"/></g></svg>