<svg id="SvgjsSvg1036" width="288" height="288" xmlns="http://www.w3.org/2000/svg" version="1.1" xmlns:xlink="http://www.w3.org/1999/xlink" xmlns:svgjs="http://svgjs.com/svgjs"><defs id="SvgjsDefs1037"></defs><g id="SvgjsG1038"><svg xmlns="http://www.w3.org/2000/svg" viewBox="0 0 48 48" width="288" height="288"><path d="M5 42q-1.2 0-2.1-.9Q2 40.2 2 39V11q0-1.2.9-2.1Q3.8 8 5 8h38q1.2 0 2.1.9.9.9.9 2.1v28q0 1.2-.9 2.1-.9.9-2.1.9Zm0-3h38V11H5v28Zm10-4.1h18v-3.2H15Zm-5.9-7.25h4.35v-4.3H9.1Zm8.5 0h4.35v-4.3H17.6Zm8.45 0h4.35v-4.3h-4.35Zm8.5 0h4.35v-4.3h-4.35ZM9.1 19.3h4.35v-4.25H9.1Zm8.5 0h4.35v-4.25H17.6Zm8.45 0h4.35v-4.25h-4.35Zm8.5 0h4.35v-4.25h-4.35ZM5 39V11v28Z" fill="#ffffff" class="color000 svgShape"></path></svg></g></svg>