<svg xmlns="http://www.w3.org/2000/svg" width="48" height="48"><g><title>Layer 1</title><path id="svg_1" fill="#fff" d="m39.8,43.15q-6.35,0 -12.6,-3.1t-11.25,-8.075q-5,-4.975 -8.1,-11.25q-3.1,-6.275 -3.1,-12.575q0,-1.45 1,-2.45q1,-1 2.45,-1l7,0q1.55,0 2.525,0.8q0.975,0.8 1.325,2.35l1.35,5.5q0.25,1.35 -0.05,2.325q-0.3,0.975 -1.1,1.675l-5.2,4.75q2.5,3.95 5.4,6.825q2.9,2.875 6.5,4.875l5,-5.05q0.9,-0.9 1.925,-1.225q1.025,-0.325 2.275,-0.025l4.9,1.2q1.55,0.4 2.375,1.4q0.825,1 0.825,2.55l0,7q0,1.5 -1,2.5t-2.45,1zm-28.1,-25.2l4,-3.75l-1.1,-4.8l-5.05,0q-0.1,1.7 0.425,3.775t1.725,4.775zm18.55,18.25q1.8,0.9 3.975,1.45q2.175,0.55 4.275,0.7l0,-5.15l-4.4,-1l-3.85,4zm-18.55,-18.25zm18.55,18.25z"/></g></svg>