<svg id="SvgjsSvg1084" width="288" height="288" xmlns="http://www.w3.org/2000/svg" version="1.1" xmlns:xlink="http://www.w3.org/1999/xlink" xmlns:svgjs="http://svgjs.com/svgjs"><defs id="SvgjsDefs1085"></defs><g id="SvgjsG1086"><svg xmlns="http://www.w3.org/2000/svg" viewBox="0 0 48 48" width="288" height="288"><path d="M6 42V6h36v36Zm9.7-24.35q.85 0 1.4-.55.55-.55.55-1.4 0-.85-.55-1.4-.55-.55-1.4-.55-.85 0-1.4.55-.55.55-.55 1.4 0 .85.55 1.4.55.55 1.4.55Zm8.3 0q.85 0 1.425-.55.575-.55.575-1.4 0-.85-.575-1.4-.575-.55-1.425-.55-.8 0-1.35.575T22.1 15.7q0 .8.55 1.375t1.35.575Zm8.35 0q.85 0 1.4-.55.55-.55.55-1.4 0-.85-.55-1.4-.55-.55-1.4-.55-.85 0-1.4.55-.55.55-.55 1.4 0 .85.55 1.4.55.55 1.4.55Zm0 8.3q.85 0 1.4-.55.55-.55.55-1.4 0-.85-.55-1.4-.55-.55-1.4-.55-.85 0-1.4.55-.55.55-.55 1.4 0 .85.55 1.4.55.55 1.4.55Zm-8.35 0q.85 0 1.425-.55Q26 24.85 26 24q0-.85-.575-1.4-.575-.55-1.425-.55-.8 0-1.35.575T22.1 24q0 .8.55 1.375t1.35.575Zm-8.3 0q.85 0 1.4-.55.55-.55.55-1.4 0-.85-.55-1.4-.55-.55-1.4-.55-.85 0-1.4.55-.55.55-.55 1.4 0 .85.55 1.4.55.55 1.4.55ZM9 39h30V9H9ZM9 9v30Z" fill="#ffffff" class="color000 svgShape"></path></svg></g></svg>