<svg xmlns="http://www.w3.org/2000/svg" xmlns:xlink="http://www.w3.org/1999/xlink" width="100%" height="100%" version="1.1" viewBox="0 0 48 48" xml:space="preserve" style="fill-rule:evenodd;clip-rule:evenodd;stroke-linejoin:round;stroke-miterlimit:2"><path d="M9,44c-0.8,0 -1.5,-0.3 -2.1,-0.9c-0.6,-0.6 -0.9,-1.3 -0.9,-2.1l0,-26.5c0,-0.8 0.3,-1.5 0.9,-2.1c0.6,-0.6 1.3,-0.9 2.1,-0.9l5.5,0c0,-2.633 0.883,-4.875 2.65,-6.725c1.767,-1.85 3.967,-2.775 6.6,-2.775c2.633,0 4.917,0.926 6.85,2.779c1.933,1.852 2.9,4.093 2.9,6.721l5.5,0c0.8,0 1.5,0.3 2.1,0.9c0.6,0.6 0.9,1.3 0.9,2.1l0,26.5c0,0.8 -0.3,1.5 -0.9,2.1c-0.6,0.6 -1.3,0.9 -2.1,0.9l-30,0Zm0,-3l30,0l0,-26.5l-30,0l0,26.5Zm15,-14.5c2.633,0 4.917,-0.967 6.85,-2.9c1.933,-1.933 2.9,-4.217 2.9,-6.85l-3,0c0,1.833 -0.667,3.417 -2,4.75c-1.333,1.333 -2.917,2 -4.75,2c-1.833,0 -3.417,-0.667 -4.75,-2c-1.333,-1.333 -2,-2.917 -2,-4.75l-3,0c0,2.633 0.967,4.917 2.9,6.85c1.933,1.933 4.217,2.9 6.85,2.9Zm-6.5,-15l13,0c0,-1.833 -0.625,-3.375 -1.875,-4.625c-1.25,-1.25 -2.792,-1.875 -4.625,-1.875c-1.833,0 -3.375,0.625 -4.625,1.875c-1.25,1.25 -1.875,2.792 -1.875,4.625Zm-8.5,29.5l0,-26.5l0,26.5Z" style="fill:#fff;fill-rule:nonzero"/></svg>