<svg xmlns="http://www.w3.org/2000/svg" width="2000" height="2000"><g filter="url(#a)"><path fill="rgba(255, 255, 255, 1)" d="M-1000-1000h4000v4000h-4000z"/><path d="m-307.33-4.504-717 1306 908 327 858-631" fill="#c95638"/><path d="m1185.661 644.496-1122 1623 579 404 1354-1197" fill="#e324b2"/><path d="m-293.512 378.017-466 740 1558 1083 307-1219" fill="rgba(255, 255, 255, 1)"/><path d="m-242.537-170.48-440 494 167 1218 1447-754" fill="#c95638"/><path d="m656.702 133.612-332 1235 1650 597 208-1489" fill="rgba(255, 255, 255, 1)"/><path d="m1991.107-422.818-938 1352 1492 684 486-1603" fill="#2471e3"/></g><path fill="#fff" filter="url(#b)" d="M0 0h2000v2000H0z"/><defs><filter id="b" x="-800" y="-800" width="2800" height="2800" filterUnits="userSpaceOnUse" primitiveUnits="userSpaceOnUse" color-interpolation-filters="linearRGB"><feTurbulence type="fractalNoise" baseFrequency=".12" numOctaves="4" seed="15" stitchTiles="no-stitch" x="0" y="0" width="2000" height="2000" result="turbulence"/><feSpecularLighting surfaceScale="10" specularConstant=".25" specularExponent="20" lighting-color="#fff" x="0" y="0" width="2000" height="2000" in="turbulence" result="specularLighting"><feDistantLight azimuth="3" elevation="100"/></feSpecularLighting></filter><filter id="a" x="-200" y="-200" width="2400" height="2400" filterUnits="userSpaceOnUse" color-interpolation-filters="sRGB"><feFlood flood-opacity="0" result="BackgroundImageFix"/><feBlend in="SourceGraphic" in2="BackgroundImageFix" result="shape"/><feGaussianBlur stdDeviation="200" result="effect1_foregroundBlur_1_2"/></filter></defs></svg>