<svg xmlns="http://www.w3.org/2000/svg" width="2000" height="2000"><g filter="url(#a)"><path fill="#d4dae0" d="M-1000-1000h4000v4000h-4000z"/><path d="m16.146-1229.813-1048 136 1244 1591 461-1152M2636.125-91.23l-736 997 1289 621 356-536" fill="#e324b2"/><path d="m993.708 281.896-638 203 88 1374 1631-20" fill="#d4dae0"/><path d="m570.063-901.583-894 368 1333 1292 328-595" fill="#2471e3"/><path d="m536.042 1399.896-368 31 734 1630 969-700" fill="#c95638"/><path d="m2280.833 1521.854-1203 399 1351 1526 602-1283" fill="#c95638"/></g><path fill="#fff" filter="url(#b)" d="M0 0h2000v2000H0z"/><defs><filter id="b" x="-800" y="-800" width="2800" height="2800" filterUnits="userSpaceOnUse" primitiveUnits="userSpaceOnUse" color-interpolation-filters="linearRGB"><feTurbulence type="fractalNoise" baseFrequency=".12" numOctaves="4" seed="15" stitchTiles="no-stitch" x="0" y="0" width="2000" height="2000" result="turbulence"/><feSpecularLighting surfaceScale="10" specularConstant=".25" specularExponent="20" lighting-color="#fff" x="0" y="0" width="2000" height="2000" in="turbulence" result="specularLighting"><feDistantLight azimuth="3" elevation="100"/></feSpecularLighting></filter><filter id="a" x="-200" y="-200" width="2400" height="2400" filterUnits="userSpaceOnUse" color-interpolation-filters="sRGB"><feFlood flood-opacity="0" result="BackgroundImageFix"/><feBlend in="SourceGraphic" in2="BackgroundImageFix" result="shape"/><feGaussianBlur stdDeviation="200" result="effect1_foregroundBlur_1_2"/></filter></defs></svg>