<svg id="SvgjsSvg1057" width="288" height="288" xmlns="http://www.w3.org/2000/svg" version="1.1" xmlns:xlink="http://www.w3.org/1999/xlink" xmlns:svgjs="http://svgjs.com/svgjs"><defs id="SvgjsDefs1058"></defs><g id="SvgjsG1059"><svg xmlns="http://www.w3.org/2000/svg" viewBox="0 96 960 960" width="288" height="288"><path d="M697 776q-25 0-37.5-20.5T658 713l48-97H580q-25 0-42.5-17.5T520 556V396q0-25 17.5-42.5T580 336h160q25 0 42.5 17.5T800 396v214q0 7-1.5 14t-4.5 13l-58 115q-5 11-15.5 17.5T697 776Zm-360 0q-25 0-37.5-20.5T298 713l48-97H220q-25 0-42.5-17.5T160 556V396q0-25 17.5-42.5T220 336h160q25 0 42.5 17.5T440 396v214q0 7-1.5 14t-4.5 13l-58 115q-5 11-15.5 17.5T337 776Z" fill="#ffffff" class="color000 svgShape"></path></svg></g></svg>