<svg xmlns="http://www.w3.org/2000/svg" width="2000" height="1333"><g filter="url(#a)"><path fill="#d4dae0" d="M-1000-666.5h4000v2666h-4000z"/><path d="m493-919.328-1331 310 1193 1378 352-856" fill="#d4dae0"/><path d="m640.027-813.278-390 690 224 615 1158-1065M1022.356 612.884l-987 956 983 605 513-489" fill="#d4dae0"/><path d="m775.192 94.365-190 679 1414 782 20-839" fill="#d04320"/><path d="m1076.562 267.329-564 322 871 1094 520-172" fill="#d04320"/><path d="m1625.973 282.086-668 660 404 794 1162-23" fill="#d4dae0"/></g><path fill="#fff" filter="url(#b)" d="M0 0h2000v1333H0z"/><defs><filter id="b" x="-800" y="-533.2" width="2800" height="1866.2" filterUnits="userSpaceOnUse" primitiveUnits="userSpaceOnUse" color-interpolation-filters="linearRGB"><feTurbulence type="fractalNoise" baseFrequency=".115" numOctaves="4" seed="15" stitchTiles="no-stitch" x="0" y="0" width="2000" height="1333" result="turbulence"/><feSpecularLighting surfaceScale="10" specularConstant=".19" specularExponent="20" lighting-color="#fff" x="0" y="0" width="2000" height="1333" in="turbulence" result="specularLighting"><feDistantLight azimuth="3" elevation="100"/></feSpecularLighting></filter><filter id="a" x="-200" y="-200" width="2400" height="1733" filterUnits="userSpaceOnUse" color-interpolation-filters="sRGB"><feFlood flood-opacity="0" result="BackgroundImageFix"/><feBlend in="SourceGraphic" in2="BackgroundImageFix" result="shape"/><feGaussianBlur stdDeviation="200" result="effect1_foregroundBlur_1_2"/></filter></defs></svg>