<svg xmlns="http://www.w3.org/2000/svg" width="2000" height="1333"><g filter="url(#a)"><path fill="#3836a0" d="M-1000-666.5h4000v2666h-4000z"/><path d="M93-84-339 986l1009 260 245-710" fill="#d5198d"/><path d="M1020-101 138 614l562 581 647-844" fill="#d5198d"/><path d="M1683 318 901 751l403 1047 961-967" fill="#d5198d"/><path d="m793 423-1145 706 1351 674 94-950" fill="#d04320"/><path d="m354 878-36 474 524 925 789-1205M2251 785 1043 2091l6 154 1581-314" fill="#3836a0"/></g><path fill="#fff" filter="url(#b)" d="M0 0h2000v1333H0z"/><defs><filter id="b" x="-800" y="-533.2" width="2800" height="1866.2" filterUnits="userSpaceOnUse" primitiveUnits="userSpaceOnUse" color-interpolation-filters="linearRGB"><feTurbulence type="fractalNoise" baseFrequency=".115" numOctaves="4" seed="15" stitchTiles="no-stitch" x="0" y="0" width="2000" height="1333" result="turbulence"/><feSpecularLighting surfaceScale="10" specularConstant=".19" specularExponent="20" lighting-color="#fff" x="0" y="0" width="2000" height="1333" in="turbulence" result="specularLighting"><feDistantLight azimuth="3" elevation="100"/></feSpecularLighting></filter><filter id="a" x="-200" y="-200" width="2400" height="1733" filterUnits="userSpaceOnUse" color-interpolation-filters="sRGB"><feFlood flood-opacity="0" result="BackgroundImageFix"/><feBlend in="SourceGraphic" in2="BackgroundImageFix" result="shape"/><feGaussianBlur stdDeviation="200" result="effect1_foregroundBlur_1_2"/></filter></defs></svg>