<svg xmlns="http://www.w3.org/2000/svg" width="2000" height="1333"><g filter="url(#a)"><path fill="#d4dae0" d="M-1000-666.5h4000v2666h-4000z"/><path d="m965.795-53.618-582 52 1040 1574 523-222" fill="#d04320"/><path d="M962.603-1067.003h-1122l553 1470 831-382" fill="#d4dae0"/><path d="m1252.11-715.033-805 1216 116 59 1241-320" fill="#d4dae0"/><path d="m-347.15 422.137-184 626 1268 719 112-1229" fill="#d4dae0"/><path d="m1250.342 880.396-728 170 1311 1485 246-374" fill="#d4dae0"/><path d="m1445.534 545.06-242 1432 543 104 1029-368" fill="#d4dae0"/></g><path fill="#fff" filter="url(#b)" d="M0 0h2000v1333H0z"/><defs><filter id="b" x="-800" y="-533.2" width="2800" height="1866.2" filterUnits="userSpaceOnUse" primitiveUnits="userSpaceOnUse" color-interpolation-filters="linearRGB"><feTurbulence type="fractalNoise" baseFrequency=".115" numOctaves="4" seed="15" stitchTiles="no-stitch" x="0" y="0" width="2000" height="1333" result="turbulence"/><feSpecularLighting surfaceScale="10" specularConstant=".19" specularExponent="20" lighting-color="#fff" x="0" y="0" width="2000" height="1333" in="turbulence" result="specularLighting"><feDistantLight azimuth="3" elevation="100"/></feSpecularLighting></filter><filter id="a" x="-200" y="-200" width="2400" height="1733" filterUnits="userSpaceOnUse" color-interpolation-filters="sRGB"><feFlood flood-opacity="0" result="BackgroundImageFix"/><feBlend in="SourceGraphic" in2="BackgroundImageFix" result="shape"/><feGaussianBlur stdDeviation="200" result="effect1_foregroundBlur_1_2"/></filter></defs></svg>