<svg xmlns="http://www.w3.org/2000/svg" width="2000" height="1333"><g filter="url(#a)"><path fill="#d04320" d="M-1000-666.5h4000v2666h-4000z"/><path d="m245.26-612.317-546 449 1068 763 277-3" fill="#3836a0"/><path d="m731.233-545.26-447 489 313 981 1287-240" fill="#d04320"/><path d="m1178.85-495.805-619 50 831 1615 730-786M291.795 520.213l-910 241 1154 1458 426-1101" fill="#3836a0"/><path d="m1419.37 391.373-1096 375 1072 938 293-525" fill="#3836a0"/><path d="m1856 926-929 829 41 759 1409-1441" fill="#3836a0"/></g><path fill="#fff" filter="url(#b)" d="M0 0h2000v1333H0z"/><defs><filter id="b" x="-800" y="-533.2" width="2800" height="1866.2" filterUnits="userSpaceOnUse" primitiveUnits="userSpaceOnUse" color-interpolation-filters="linearRGB"><feTurbulence type="fractalNoise" baseFrequency=".115" numOctaves="4" seed="15" stitchTiles="no-stitch" x="0" y="0" width="2000" height="1333" result="turbulence"/><feSpecularLighting surfaceScale="10" specularConstant=".19" specularExponent="20" lighting-color="#fff" x="0" y="0" width="2000" height="1333" in="turbulence" result="specularLighting"><feDistantLight azimuth="3" elevation="100"/></feSpecularLighting></filter><filter id="a" x="-200" y="-200" width="2400" height="1733" filterUnits="userSpaceOnUse" color-interpolation-filters="sRGB"><feFlood flood-opacity="0" result="BackgroundImageFix"/><feBlend in="SourceGraphic" in2="BackgroundImageFix" result="shape"/><feGaussianBlur stdDeviation="200" result="effect1_foregroundBlur_1_2"/></filter></defs></svg>