<svg id="SvgjsSvg1048" width="288" height="288" xmlns="http://www.w3.org/2000/svg" version="1.1" xmlns:xlink="http://www.w3.org/1999/xlink" xmlns:svgjs="http://svgjs.com/svgjs"><defs id="SvgjsDefs1049"></defs><g id="SvgjsG1050"><svg xmlns="http://www.w3.org/2000/svg" viewBox="0 -960 960 960" width="288" height="288"><path d="M140-260h680v-280H140v280Zm540.118-90Q701-350 715.5-364.618q14.5-14.617 14.5-35.5Q730-421 715.382-435.5q-14.617-14.5-35.5-14.5Q659-450 644.5-435.382q-14.5 14.617-14.5 35.5Q630-379 644.618-364.5q14.617 14.5 35.5 14.5ZM880-600h-85L695-700H265L165-600H80l142-142q8-8 19.278-13 11.278-5 23.722-5h430q12.444 0 23.722 5T738-742l142 142ZM140-200q-24.75 0-42.375-17.625T80-260v-340h800v340q0 24.75-17.625 42.375T820-200H140Z" fill="#193047" class="color000 svgShape"></path></svg></g></svg>