<svg xmlns="http://www.w3.org/2000/svg" xmlns:svgjs="http://svgjs.com/svgjs" xmlns:xlink="http://www.w3.org/1999/xlink" id="SvgjsSvg1079" width="288" height="288" version="1.1"><g id="SvgjsG1081"><svg xmlns="http://www.w3.org/2000/svg" width="288" height="288" viewBox="0 -960 960 960"><path fill="#193047" d="m462-182 170-360H502v-240L332-422h130v240Zm18 102q-85 0-158-30.5T195-195q-54-54-84.5-127T80-480q0-84 30.5-157T195-764q54-54 127-85t158-31q84 0 157 31t127 85q54 54 85 127t31 157q0 85-31 158t-85 127q-54 54-127 84.5T480-80Zm0-400Zm0 340q145 0 242.5-97.5T820-480q0-145-97.5-242.5T480-820q-145 0-242.5 97.5T140-480q0 145 97.5 242.5T480-140Z" class="color000 svgShape"/></svg></g></svg>