<svg id="SvgjsSvg1032" width="288" height="288" xmlns="http://www.w3.org/2000/svg" version="1.1" xmlns:xlink="http://www.w3.org/1999/xlink" xmlns:svgjs="http://svgjs.com/svgjs"><defs id="SvgjsDefs1033"></defs><g id="SvgjsG1034"><svg xmlns="http://www.w3.org/2000/svg" viewBox="0 -960 960 960" width="288" height="288"><path d="M150-120q-24 0-42-18t-18-42v-600q0-24 18-42t42-18h600q24 0 42 18t18 42v60h60v60h-60v150h60v60h-60v150h60v60h-60v60q0 24-18 42t-42 18H150Zm0-60h600v-600H150v600Zm60-60h253v-200H210v200Zm283-336h197v-144H493v144ZM210-470h253v-250H210v250Zm283 230h197v-306H493v306ZM150-780v600-600Z" fill="#193047" class="color000 svgShape"></path></svg></g></svg>