<svg xmlns="http://www.w3.org/2000/svg" xmlns:svgjs="http://svgjs.com/svgjs" xmlns:xlink="http://www.w3.org/1999/xlink" id="SvgjsSvg1001" width="288" height="288" version="1.1"><g id="SvgjsG1008"><svg xmlns="http://www.w3.org/2000/svg" width="288" height="288" viewBox="0 -960 960 960"><path fill="#193047" d="M120-425v-355q0-24 18-42t42-18h270v415H120Zm270-60Zm120-355h270q24 0 42 18t18 42v185H510v-245Zm0 720v-415h330v355q0 24-18 42t-42 18H510ZM120-365h330v245H180q-24 0-42-18t-18-42v-185Zm270 60Zm180-350Zm0 180Zm-390-10h210v-295H180v295Zm390-170h210v-125H570v125Zm0 180v295h210v-295H570ZM180-305v125h210v-125H180Z" class="color000 svgShape"/></svg></g></svg>