<svg xmlns="http://www.w3.org/2000/svg" width="185.732" height="26.849" viewBox="0 0 185.732 26.849"><path d="M1-25.179v-1.187q3.729.111,5.9.111,1.447,0,3.08-.037l2.913-.093q.482-.019.891-.019a13.309,13.309,0,0,1,4.639.649,5.405,5.405,0,0,1,2.635,2.069,5.7,5.7,0,0,1,.946,3.238,7.336,7.336,0,0,1-.789,3.247,7.486,7.486,0,0,1-2.292,2.737,9.936,9.936,0,0,1-3.136,1.6,8.78,8.78,0,0,1-2.523.334,13.823,13.823,0,0,1-2.561-.26l-.39-1.373a12.635,12.635,0,0,0,2.6.371,5.48,5.48,0,0,0,2.644-.677A4.649,4.649,0,0,0,17.506-16.5a6.537,6.537,0,0,0,.7-3.015,6.11,6.11,0,0,0-.677-2.885,4.428,4.428,0,0,0-2.06-1.958,7.644,7.644,0,0,0-3.349-.668,12.749,12.749,0,0,0-3.785.631q-.167,1.967-.167,6.16v9.352q0,2.523.056,4.917a5.936,5.936,0,0,0,.269,2.1,1.243,1.243,0,0,0,.687.492,13.219,13.219,0,0,0,2.681.195V0Q8.424-.148,6.81-.148,6.179-.148,1,0V-1.187a13.251,13.251,0,0,0,2.672-.195,1.226,1.226,0,0,0,.668-.436,4.727,4.727,0,0,0,.278-1.8q.019-.39.074-5.27v-8.591q0-2.523-.056-4.936A5.836,5.836,0,0,0,4.37-24.5a1.261,1.261,0,0,0-.687-.482A13.219,13.219,0,0,0,1-25.179ZM26.979-12.71,26-12.97q.019-.427.019-1.169,0-.779-.019-1.243a19.785,19.785,0,0,1,3.859-2.078,8.009,8.009,0,0,1,2.579-.39,7.294,7.294,0,0,1,3.563.8,4.994,4.994,0,0,1,2.152,2.282,6.86,6.86,0,0,1,.482,2.839l-.074,3.4v5.529a3.935,3.935,0,0,0,.148,1.28.769.769,0,0,0,.353.408,2,2,0,0,0,.779.148l1.206.111V0q-1.521-.13-2.672-.13Q37.258-.13,35.4,0L35.5-3.266Q31.71-.408,31-.046a3.885,3.885,0,0,1-1.781.362,4.858,4.858,0,0,1-3.5-1.2,4.2,4.2,0,0,1-1.252-3.182A6.077,6.077,0,0,1,24.91-6.4a5.173,5.173,0,0,1,1.048-1.679A4.408,4.408,0,0,1,27.2-9a20.007,20.007,0,0,1,3.5-1.076,41.793,41.793,0,0,1,4.8-.854,6.649,6.649,0,0,0-.427-2.746,3.615,3.615,0,0,0-1.5-1.614,4.951,4.951,0,0,0-2.579-.631,5.668,5.668,0,0,0-1.92.3,2.962,2.962,0,0,0-1.011.5l-.334.668Q27.22-13.341,26.979-12.71ZM35.5-9.8a36.48,36.48,0,0,0-4.119.909,7.831,7.831,0,0,0-2.412,1.039,2.583,2.583,0,0,0-.742.946,4.4,4.4,0,0,0-.482,2.06A2.917,2.917,0,0,0,28.5-2.7a2.839,2.839,0,0,0,2.115.77,4.806,4.806,0,0,0,2.458-.714A9.68,9.68,0,0,0,35.5-4.787ZM42.824,0V-1.058q2.1-.037,2.264-.074a1.1,1.1,0,0,0,.473-.176.814.814,0,0,0,.25-.343,3.98,3.98,0,0,0,.223-1.336q.111-4.954.111-5.177v-2.208q0-1.484-.056-3.191a4.027,4.027,0,0,0-.158-1.3.741.741,0,0,0-.427-.306,13.855,13.855,0,0,0-2.421-.083V-16.31a19.615,19.615,0,0,0,5.474-1.354,1.478,1.478,0,0,1,.5-.186.247.247,0,0,1,.2.093.44.44,0,0,1,.074.278,2.721,2.721,0,0,1-.019.3q-.093,1.132-.111,3.507.835-.965,1.54-1.911a9.355,9.355,0,0,1,1.021-1.225,4.441,4.441,0,0,1,1.28-.77,4.033,4.033,0,0,1,1.5-.288,3.8,3.8,0,0,1,1.54.334l.111.26q-.278,2.468-.315,4.342h-.835a3.335,3.335,0,0,0-.993-1.3,2.364,2.364,0,0,0-1.419-.408,3.081,3.081,0,0,0-2.431,1.178,5.344,5.344,0,0,0-1,3.535v1.911q0,1.225.093,4.472a9.181,9.181,0,0,0,.093,1.466,1.083,1.083,0,0,0,.195.455.894.894,0,0,0,.4.232,19.8,19.8,0,0,0,3.006.334V0q-3.266-.13-5.566-.13Q45.051-.13,42.824,0ZM57.742,0V-1.058L59.5-1.076a1.375,1.375,0,0,0,.6-.139.863.863,0,0,0,.325-.306,3.4,3.4,0,0,0,.26-1.317q0-.241.111-5.325v-2.208q0-1.484-.056-3.191a4.176,4.176,0,0,0-.176-1.3.738.738,0,0,0-.417-.306,13.668,13.668,0,0,0-2.412-.083V-16.31a19.615,19.615,0,0,0,5.474-1.354,1.478,1.478,0,0,1,.5-.186.247.247,0,0,1,.2.093.44.44,0,0,1,.074.278,2.721,2.721,0,0,1-.019.3q-.074.891-.111,2.653L66.3-16.755a4.57,4.57,0,0,1,.575-.464,5.184,5.184,0,0,1,1.225-.445,6.713,6.713,0,0,1,1.67-.2A5.849,5.849,0,0,1,72.938-17a5.548,5.548,0,0,1,2.134,2.579l2.041-1.893a6.946,6.946,0,0,1,.946-.779,5.943,5.943,0,0,1,1.373-.52A6.721,6.721,0,0,1,81.2-17.85a5.56,5.56,0,0,1,3.544,1.123,5.019,5.019,0,0,1,1.837,2.551,19.584,19.584,0,0,1,.26,4.082v1.93l.056,2.579q.056,2.245.056,2.635A4.046,4.046,0,0,0,87.17-1.6a.737.737,0,0,0,.232.288,1.252,1.252,0,0,0,.455.195q.111.019,2.041.056V0Q87.56-.111,86.706-.111q-.816,0-3.284.111l.167-5.121.056-2v-1.6a18.829,18.829,0,0,0-.315-4.258A3.255,3.255,0,0,0,82-14.825a4,4,0,0,0-2.347-.705,4.666,4.666,0,0,0-2.783.891,3.24,3.24,0,0,0-1.225,1.614,14.185,14.185,0,0,0-.3,3.618v1.243l.056,2.579q.037,2.245.056,2.635A4.046,4.046,0,0,0,75.685-1.6a.77.77,0,0,0,.223.288,1.154,1.154,0,0,0,.445.195q.13.019,2.06.056V0q-2.728-.148-4.379-.148Q72.7-.148,69.172,0V-1.058l1.763-.019a1.421,1.421,0,0,0,.622-.139.863.863,0,0,0,.325-.306,3.251,3.251,0,0,0,.241-1.317q.019-.241.111-5.325V-9.611a11.931,11.931,0,0,0-.371-3.5,3.454,3.454,0,0,0-1.3-1.763,3.746,3.746,0,0,0-2.227-.659,4.834,4.834,0,0,0-2.106.473A4.092,4.092,0,0,0,64.7-13.879a3.179,3.179,0,0,0-.649,1.5,21.873,21.873,0,0,0-.186,3.08v1.132q.111,4.824.111,5.214A4.046,4.046,0,0,0,64.2-1.6a.77.77,0,0,0,.223.288,1.17,1.17,0,0,0,.464.195q.111.019,2.041.056V0q-2.561-.148-4.36-.148Q60.971-.148,57.742,0Zm49.17-2.876-.594,1.336a16.957,16.957,0,0,1-1.874,1.058,11.425,11.425,0,0,1-1.995.659,10.121,10.121,0,0,1-2.366.269A9.557,9.557,0,0,1,95.649-.575,7.211,7.211,0,0,1,92.56-3.627a9.818,9.818,0,0,1-1.1-4.759,11.9,11.9,0,0,1,.584-3.85,7.289,7.289,0,0,1,1.327-2.533,9.584,9.584,0,0,1,1.67-1.364,11.8,11.8,0,0,1,2.245-1.215,8.149,8.149,0,0,1,3.173-.612,7.519,7.519,0,0,1,3.757.946,5.781,5.781,0,0,1,2.458,2.579,8.468,8.468,0,0,1,.779,3.692q0,.52-.074,1.262a20.038,20.038,0,0,1-2.394.334q-2,.148-4.008.148H95.019a9.355,9.355,0,0,0,.918,4.3,5.57,5.57,0,0,0,2.431,2.421,7.078,7.078,0,0,0,3.219.779,7.311,7.311,0,0,0,2.254-.362,14.792,14.792,0,0,0,2.774-1.327ZM95.019-10.465q.52.056,1.967.111,2.765.093,3.8.093,2.468,0,3.247-.093.019-.445.019-.687a6.483,6.483,0,0,0-1.187-4.3,3.984,3.984,0,0,0-3.173-1.373,4.218,4.218,0,0,0-3.377,1.5A7.311,7.311,0,0,0,95.019-10.465ZM109.231,0V-1.058l1.763-.019a1.375,1.375,0,0,0,.6-.139.863.863,0,0,0,.325-.306,3.4,3.4,0,0,0,.26-1.317q0-.241.111-5.325v-2.208q0-1.484-.056-3.191a4.176,4.176,0,0,0-.176-1.3.738.738,0,0,0-.417-.306,13.668,13.668,0,0,0-2.412-.083V-16.31a19.615,19.615,0,0,0,5.474-1.354,1.478,1.478,0,0,1,.5-.186.247.247,0,0,1,.2.093.44.44,0,0,1,.074.278,2.722,2.722,0,0,1-.019.3q-.056.668-.111,2.82l3.451-2.95a8.382,8.382,0,0,1,2.876-.557,6.8,6.8,0,0,1,2.848.612,4.989,4.989,0,0,1,2.022,1.54,5.309,5.309,0,0,1,.9,2.338,45.744,45.744,0,0,1,.13,4.657v3.284a26.818,26.818,0,0,0,.13,3.284,1.547,1.547,0,0,0,.288.77.964.964,0,0,0,.6.269l1.985.056V0q-1.818-.13-3.024-.13-1.039,0-3.451.13.26-4.583.26-5.789V-8.906a20.224,20.224,0,0,0-.223-3.822,3.373,3.373,0,0,0-1.429-2,4.653,4.653,0,0,0-2.69-.761,5.025,5.025,0,0,0-2.542.659,4.245,4.245,0,0,0-1.642,1.521,6.241,6.241,0,0,0-.492,2.9v2.245q.111,4.824.111,5.214a4.046,4.046,0,0,0,.223,1.354.77.77,0,0,0,.223.288,1.17,1.17,0,0,0,.464.195q.111.019,2.041.056V0q-2.264-.13-4.1-.13Q112.757-.13,109.231,0Zm22.451-14.547v-.779a31.226,31.226,0,0,0,2.95-1.262q0-4.416-.111-5.641a15.367,15.367,0,0,0,3.136-1.429l.445.371q-.2,1.54-.445,6.791,1.484.019,1.781.019.167,0,1.911-.037.965-.019,1.447-.074l.13.13-.39,1.726q-1.169-.019-2.152-.019t-2.728.019l-.111,7.552a27.911,27.911,0,0,0,.037,3.3,2.464,2.464,0,0,0,.353.937,1.975,1.975,0,0,0,.677.64,4.1,4.1,0,0,0,1.419.371,9.43,9.43,0,0,0,1.234-.065,6.208,6.208,0,0,0,1.2-.325l.223.724Q141.813-.909,141-.167a6.3,6.3,0,0,1-1.317.343,10.547,10.547,0,0,1-1.41.083A4.51,4.51,0,0,1,136.7.037a3.768,3.768,0,0,1-1.067-.622,3.182,3.182,0,0,1-.8-1.011,5.253,5.253,0,0,1-.408-1.93q.019-1.262.074-2.765.019-.3.019-.649v-7.7h-.761Q132.833-14.64,131.683-14.547Zm16.9-11.578a1.991,1.991,0,0,1,1.475.612,2.037,2.037,0,0,1,.6,1.484,2,2,0,0,1-.612,1.466,2,2,0,0,1-1.466.612,2.021,2.021,0,0,1-1.484-.612,2,2,0,0,1-.612-1.466,2.021,2.021,0,0,1,.612-1.484A2.021,2.021,0,0,1,148.586-26.125Zm-4.527,10.854v-1.058a19.417,19.417,0,0,0,6.049-1.559l.408.3q-.148,3.952-.148,6.049v3.377q.093,4.824.111,5.214a3.829,3.829,0,0,0,.2,1.354.981.981,0,0,0,.241.288,1.154,1.154,0,0,0,.445.195q.111.019,2.06.056V0q-2.82-.13-4.509-.13-1.484,0-4.861.13V-1.058l1.763-.019a1.375,1.375,0,0,0,.6-.139.863.863,0,0,0,.325-.306,3.4,3.4,0,0,0,.26-1.317q0-.241.111-5.325V-11.43a15.4,15.4,0,0,0-.186-3.284.773.773,0,0,0-.4-.417A10.751,10.751,0,0,0,144.059-15.271ZM170.685-2.876l-.594,1.336a16.958,16.958,0,0,1-1.874,1.058,11.425,11.425,0,0,1-1.995.659,10.121,10.121,0,0,1-2.366.269,9.556,9.556,0,0,1-4.435-1.021,7.211,7.211,0,0,1-3.089-3.052,9.818,9.818,0,0,1-1.1-4.759,11.9,11.9,0,0,1,.584-3.85,7.289,7.289,0,0,1,1.327-2.533,9.583,9.583,0,0,1,1.67-1.364,11.8,11.8,0,0,1,2.245-1.215,8.149,8.149,0,0,1,3.173-.612,7.519,7.519,0,0,1,3.757.946,5.781,5.781,0,0,1,2.458,2.579,8.468,8.468,0,0,1,.779,3.692q0,.52-.074,1.262a20.038,20.038,0,0,1-2.394.334q-2,.148-4.008.148h-5.956a9.355,9.355,0,0,0,.918,4.3,5.57,5.57,0,0,0,2.431,2.421,7.078,7.078,0,0,0,3.219.779,7.31,7.31,0,0,0,2.254-.362,14.792,14.792,0,0,0,2.774-1.327Zm-11.894-7.589q.52.056,1.967.111,2.765.093,3.8.093,2.468,0,3.247-.093.019-.445.019-.687a6.483,6.483,0,0,0-1.187-4.3,3.984,3.984,0,0,0-3.173-1.373,4.218,4.218,0,0,0-3.377,1.5A7.311,7.311,0,0,0,158.791-10.465ZM173.356,0V-1.058q2.1-.037,2.264-.074a1.1,1.1,0,0,0,.473-.176.814.814,0,0,0,.25-.343,3.98,3.98,0,0,0,.223-1.336q.111-4.954.111-5.177v-2.208q0-1.484-.056-3.191a4.027,4.027,0,0,0-.158-1.3.741.741,0,0,0-.427-.306,13.855,13.855,0,0,0-2.421-.083V-16.31a19.615,19.615,0,0,0,5.474-1.354,1.478,1.478,0,0,1,.5-.186.247.247,0,0,1,.2.093.44.44,0,0,1,.074.278,2.72,2.72,0,0,1-.019.3q-.093,1.132-.111,3.507.835-.965,1.54-1.911a9.355,9.355,0,0,1,1.021-1.225,4.441,4.441,0,0,1,1.28-.77,4.033,4.033,0,0,1,1.5-.288,3.8,3.8,0,0,1,1.54.334l.111.26q-.278,2.468-.315,4.342h-.835a3.335,3.335,0,0,0-.993-1.3,2.364,2.364,0,0,0-1.419-.408,3.081,3.081,0,0,0-2.431,1.178,5.344,5.344,0,0,0-1,3.535v1.911q0,1.225.093,4.472a9.181,9.181,0,0,0,.093,1.466,1.083,1.083,0,0,0,.195.455.894.894,0,0,0,.4.232,19.8,19.8,0,0,0,3.006.334V0q-3.266-.13-5.566-.13Q175.583-.13,173.356,0Z" transform="translate(-1.002 26.403)" fill="#032246"/></svg>