<svg xmlns="http://www.w3.org/2000/svg" width="169.686" height="24.75" viewBox="0 0 169.686 24.75"><path d="M13.893.264A12.914,12.914,0,0,1,7.59-1.27a11.342,11.342,0,0,1-4.406-4.24,11.639,11.639,0,0,1-1.6-6.039,11.639,11.639,0,0,1,1.6-6.039,11.342,11.342,0,0,1,4.406-4.24,12.914,12.914,0,0,1,6.3-1.535,12.847,12.847,0,0,1,6.27,1.535,11.26,11.26,0,0,1,4.389,4.224,11.707,11.707,0,0,1,1.584,6.056,11.707,11.707,0,0,1-1.584,6.056A11.26,11.26,0,0,1,20.163-1.27,12.847,12.847,0,0,1,13.893.264Zm0-2.937a9.075,9.075,0,0,0,4.57-1.155,8.474,8.474,0,0,0,3.2-3.185,8.911,8.911,0,0,0,1.171-4.537,8.911,8.911,0,0,0-1.171-4.537,8.474,8.474,0,0,0-3.2-3.184,9.075,9.075,0,0,0-4.57-1.155,9.259,9.259,0,0,0-4.6,1.155,8.407,8.407,0,0,0-3.234,3.184A8.911,8.911,0,0,0,4.884-11.55,8.911,8.911,0,0,0,6.056-7.013,8.407,8.407,0,0,0,9.29-3.828,9.259,9.259,0,0,0,13.893-2.673ZM40-17.655a9.193,9.193,0,0,1,4.554,1.122A8.07,8.07,0,0,1,47.7-13.4,9.289,9.289,0,0,1,48.84-8.745,9.381,9.381,0,0,1,47.7-4.076,8.04,8.04,0,0,1,44.55-.924,9.193,9.193,0,0,1,40,.2a8.283,8.283,0,0,1-3.564-.759,6.86,6.86,0,0,1-2.673-2.211V0H30.723V-24.486h3.168v9.636a6.727,6.727,0,0,1,2.64-2.1A8.379,8.379,0,0,1,40-17.655ZM39.732-2.574a5.905,5.905,0,0,0,3.02-.775,5.588,5.588,0,0,0,2.112-2.178,6.539,6.539,0,0,0,.775-3.217,6.539,6.539,0,0,0-.775-3.218,5.472,5.472,0,0,0-2.112-2.161,6.006,6.006,0,0,0-3.02-.759,6.032,6.032,0,0,0-3,.759,5.33,5.33,0,0,0-2.112,2.161,6.653,6.653,0,0,0-.759,3.218,6.653,6.653,0,0,0,.759,3.217,5.441,5.441,0,0,0,2.112,2.178A5.931,5.931,0,0,0,39.732-2.574Zm29.3-6.072a9.08,9.08,0,0,1-.066.957H54.78A5.492,5.492,0,0,0,56.81-3.977a6.623,6.623,0,0,0,4.306,1.4,6.488,6.488,0,0,0,5.049-2.112L67.914-2.64A7.661,7.661,0,0,1,64.961-.528,10.28,10.28,0,0,1,61.017.2,10.329,10.329,0,0,1,56.1-.941a8.12,8.12,0,0,1-3.317-3.184,9.13,9.13,0,0,1-1.171-4.62,9.272,9.272,0,0,1,1.139-4.587,8.156,8.156,0,0,1,3.135-3.184,8.93,8.93,0,0,1,4.5-1.139,8.75,8.75,0,0,1,4.472,1.139,8,8,0,0,1,3.069,3.184A9.7,9.7,0,0,1,69.036-8.646ZM60.39-14.982A5.475,5.475,0,0,0,56.579-13.6a5.588,5.588,0,0,0-1.8,3.63H66a5.624,5.624,0,0,0-1.8-3.614A5.438,5.438,0,0,0,60.39-14.982Zm16.071.429a5.405,5.405,0,0,1,2.442-2.31,8.863,8.863,0,0,1,3.927-.792v3.069a6.185,6.185,0,0,0-.726-.033,5.33,5.33,0,0,0-4.042,1.535,6.075,6.075,0,0,0-1.469,4.372V0H73.425V-17.49h3.036Zm19.6-3.1a7.226,7.226,0,0,1,5.3,1.931,7.593,7.593,0,0,1,1.964,5.659V0h-3.168V-9.7a5.369,5.369,0,0,0-1.221-3.828,4.592,4.592,0,0,0-3.5-1.287,5.451,5.451,0,0,0-4.059,1.5,5.867,5.867,0,0,0-1.485,4.306V0H86.724V-24.486h3.168v9.471a6.539,6.539,0,0,1,2.59-1.947A8.922,8.922,0,0,1,96.063-17.655Zm19.5,0a7.91,7.91,0,0,1,5.561,1.782,6.881,6.881,0,0,1,1.93,5.313V0h-3V-2.31a5.007,5.007,0,0,1-2.26,1.864A8.627,8.627,0,0,1,114.312.2a7.286,7.286,0,0,1-4.7-1.419,4.552,4.552,0,0,1-1.765-3.729,4.593,4.593,0,0,1,1.683-3.712q1.683-1.4,5.346-1.4h5.016v-.627a4.039,4.039,0,0,0-1.188-3.135,5.011,5.011,0,0,0-3.5-1.089,9.261,9.261,0,0,0-3.036.511,7.821,7.821,0,0,0-2.508,1.369l-1.32-2.376a9.579,9.579,0,0,1,3.234-1.666A13.532,13.532,0,0,1,115.566-17.655ZM114.84-2.244a5.885,5.885,0,0,0,3.135-.808,4.627,4.627,0,0,0,1.914-2.294V-7.788H115q-4.026,0-4.026,2.706A2.448,2.448,0,0,0,112-3,4.677,4.677,0,0,0,114.84-2.244Zm17.127-12.309a5.405,5.405,0,0,1,2.442-2.31,8.863,8.863,0,0,1,3.927-.792v3.069a6.185,6.185,0,0,0-.726-.033,5.33,5.33,0,0,0-4.042,1.535A6.075,6.075,0,0,0,132.1-8.712V0h-3.168V-17.49h3.036Zm32.142-3.1a7.1,7.1,0,0,1,5.23,1.914,7.66,7.66,0,0,1,1.93,5.676V0H168.1V-9.7a5.517,5.517,0,0,0-1.171-3.828,4.3,4.3,0,0,0-3.35-1.287,5.016,5.016,0,0,0-3.828,1.5,6.033,6.033,0,0,0-1.419,4.306V0h-3.168V-9.7a5.517,5.517,0,0,0-1.171-3.828,4.3,4.3,0,0,0-3.35-1.287,5.016,5.016,0,0,0-3.828,1.5A6.033,6.033,0,0,0,145.4-9.009V0H142.23V-17.49h3.036v2.607a6.139,6.139,0,0,1,2.508-2.062,8.4,8.4,0,0,1,3.531-.71,7.744,7.744,0,0,1,3.63.825,5.733,5.733,0,0,1,2.442,2.409,6.7,6.7,0,0,1,2.756-2.376A8.98,8.98,0,0,1,164.109-17.655Z" transform="translate(-1.584 24.486)" fill="#032246"/></svg>