<svg xmlns="http://www.w3.org/2000/svg" width="193.059" height="27.93" viewBox="0 0 193.059 27.93"><path d="M2.66,0V-27.36H4.845v13l13.015-13h2.888L7.657-14.212,21.888,0H18.962L4.845-13.984V0ZM22.572.095l-1.52-1.52L24.225-4.6l.608-.475L37.164-17.366l.475-.608,2.679-2.641,1.52,1.5-3.1,3.04-.551.437L26.125-3.572l-.513.627ZM31.445.57A9.3,9.3,0,0,1,26.258-.817a8.863,8.863,0,0,1-3.249-3.838A13.435,13.435,0,0,1,21.888-10.3a13.226,13.226,0,0,1,1.14-5.653,8.727,8.727,0,0,1,3.278-3.791,9.433,9.433,0,0,1,5.139-1.349,9.392,9.392,0,0,1,5.2,1.378A8.738,8.738,0,0,1,39.891-15.9,13.354,13.354,0,0,1,41-10.3a13.517,13.517,0,0,1-1.121,5.691A8.707,8.707,0,0,1,36.613-.8,9.417,9.417,0,0,1,31.445.57Zm0-2.128A6.305,6.305,0,0,0,36.869-3.99a10.355,10.355,0,0,0,1.8-6.308,10.112,10.112,0,0,0-1.805-6.308,6.394,6.394,0,0,0-5.415-2.356A6.92,6.92,0,0,0,27.4-17.851a6.677,6.677,0,0,0-2.385,3.059,11.906,11.906,0,0,0-.788,4.493,10.166,10.166,0,0,0,1.833,6.346A6.367,6.367,0,0,0,31.445-1.558ZM54.169.57A7.581,7.581,0,0,1,49.476-.874,9.056,9.056,0,0,1,46.55-4.769,14.433,14.433,0,0,1,45.543-10.3a14.414,14.414,0,0,1,1.007-5.538,8.634,8.634,0,0,1,2.983-3.847,8.141,8.141,0,0,1,4.845-1.406,7.935,7.935,0,0,1,4.769,1.425,8.946,8.946,0,0,1,3.012,3.876A13.98,13.98,0,0,1,63.194-10.3,13.93,13.93,0,0,1,62.139-4.76a9.05,9.05,0,0,1-3.059,3.9A8.219,8.219,0,0,1,54.169.57ZM45.182,0V-27.36h2.185v11.552h-.19V0Zm8.854-1.52a6.013,6.013,0,0,0,3.771-1.159,7.081,7.081,0,0,0,2.28-3.144,12.3,12.3,0,0,0,.769-4.475,12.368,12.368,0,0,0-.75-4.436,6.9,6.9,0,0,0-2.261-3.116A6.174,6.174,0,0,0,54-19a6.234,6.234,0,0,0-3.781,1.111,6.682,6.682,0,0,0-2.28,3.088,12.477,12.477,0,0,0-.76,4.5,12.639,12.639,0,0,0,.75,4.494,6.833,6.833,0,0,0,2.28,3.135A6.193,6.193,0,0,0,54.036-1.52ZM75.829.57A9.527,9.527,0,0,1,70.737-.751a8.785,8.785,0,0,1-3.325-3.743,12.971,12.971,0,0,1-1.178-5.729,13.33,13.33,0,0,1,1.169-5.8,8.663,8.663,0,0,1,3.306-3.752,9.531,9.531,0,0,1,5.083-1.311,9.251,9.251,0,0,1,5.1,1.359,8.549,8.549,0,0,1,3.23,3.923,14.88,14.88,0,0,1,1.055,6.175H82.9v-.76Q82.8-14.611,81-16.815a6.3,6.3,0,0,0-5.168-2.2,6.568,6.568,0,0,0-5.368,2.29,9.9,9.9,0,0,0-1.89,6.469,9.792,9.792,0,0,0,1.89,6.422,6.537,6.537,0,0,0,5.33,2.28,7.663,7.663,0,0,0,4.151-1.111,7.782,7.782,0,0,0,2.821-3.182l1.976.874a9.284,9.284,0,0,1-3.572,4.1A9.948,9.948,0,0,1,75.829.57Zm-8.094-10.2v-1.976H83.942v1.976ZM103.835,0V-10.678a13.971,13.971,0,0,0-.39-3.458,7.358,7.358,0,0,0-1.178-2.584,5.093,5.093,0,0,0-1.976-1.615,6.6,6.6,0,0,0-2.8-.551,6.719,6.719,0,0,0-2.9.58,5.337,5.337,0,0,0-2.014,1.624A7.2,7.2,0,0,0,91.4-14.2a11.9,11.9,0,0,0-.39,3.126l-1.729-.209a11.752,11.752,0,0,1,1.131-5.482,7.409,7.409,0,0,1,3.049-3.192A8.935,8.935,0,0,1,97.774-21a8.715,8.715,0,0,1,3.031.494,7,7,0,0,1,2.327,1.4,7.749,7.749,0,0,1,1.634,2.128,10.413,10.413,0,0,1,.959,2.689,14.565,14.565,0,0,1,.313,3.059V0ZM88.806,0V-20.52H90.8V-15.9h.209V0Zm36.366,0V-9.88a19.276,19.276,0,0,0-.133-2.147,7.7,7.7,0,0,0-.618-2.27,4.4,4.4,0,0,0-1.444-1.8,4.3,4.3,0,0,0-2.593-.7,5.436,5.436,0,0,0-1.729.285,3.939,3.939,0,0,0-1.549.978,4.916,4.916,0,0,0-1.111,1.9,9.588,9.588,0,0,0-.418,3.087L112.86-11.7a10.88,10.88,0,0,1,1.017-4.75,8.082,8.082,0,0,1,2.993-3.391,8.851,8.851,0,0,1,4.864-1.264,8.216,8.216,0,0,1,3.762.76,6.644,6.644,0,0,1,2.356,1.938,8.437,8.437,0,0,1,1.292,2.508,12.866,12.866,0,0,1,.542,2.517q.123,1.188.123,1.929V0ZM110.941,0V-27.36h4.085v14.4h.551V0Zm29.545.57a7.718,7.718,0,0,1-3.762-.845A5.783,5.783,0,0,1,134.4-2.527a6.223,6.223,0,0,1-.788-3.1,6.891,6.891,0,0,1,.494-2.669,5.338,5.338,0,0,1,1.52-2.052,8.109,8.109,0,0,1,2.66-1.416,25.085,25.085,0,0,1,2.9-.722q1.662-.323,3.61-.6t4.076-.6l-1.634.931a4.325,4.325,0,0,0-.95-3.135,4.407,4.407,0,0,0-3.268-1.007,5.92,5.92,0,0,0-2.679.646,3.584,3.584,0,0,0-1.805,2.223l-4.18-1.311a7.749,7.749,0,0,1,2.9-4.18,9.508,9.508,0,0,1,5.767-1.577,12.124,12.124,0,0,1,4.816.893,5.973,5.973,0,0,1,3.087,2.926,6.232,6.232,0,0,1,.665,2.213A24.617,24.617,0,0,1,151.7-12.6V0h-4.009V-4.446l.665.722a9.161,9.161,0,0,1-3.239,3.258A9.381,9.381,0,0,1,140.486.57Zm.912-3.648a5.9,5.9,0,0,0,2.66-.551,5.294,5.294,0,0,0,1.757-1.349,4.743,4.743,0,0,0,.884-1.5,5.871,5.871,0,0,0,.408-2q.047-1.13.048-1.833l1.406.418q-2.071.323-3.553.57t-2.546.465a17.484,17.484,0,0,0-1.881.484,5.821,5.821,0,0,0-1.349.665,2.833,2.833,0,0,0-.845.874,2.221,2.221,0,0,0-.295,1.159,2.387,2.387,0,0,0,.38,1.339,2.606,2.606,0,0,0,1.111.921A4.275,4.275,0,0,0,141.4-3.078ZM161.424,0l-7.448-20.52h4.579l5.168,14.877,5.149-14.877h4.6L166.022,0Zm29.659,0V-9.88a19.274,19.274,0,0,0-.133-2.147,7.7,7.7,0,0,0-.618-2.27,4.4,4.4,0,0,0-1.444-1.8,4.3,4.3,0,0,0-2.593-.7,5.436,5.436,0,0,0-1.729.285,3.939,3.939,0,0,0-1.548.978,4.916,4.916,0,0,0-1.112,1.9,9.588,9.588,0,0,0-.418,3.087L178.771-11.7a10.88,10.88,0,0,1,1.016-4.75,8.082,8.082,0,0,1,2.993-3.391,8.851,8.851,0,0,1,4.864-1.264,8.216,8.216,0,0,1,3.762.76,6.644,6.644,0,0,1,2.356,1.938,8.437,8.437,0,0,1,1.292,2.508,12.865,12.865,0,0,1,.541,2.517q.124,1.188.124,1.929V0ZM176.852,0V-20.52h4.085v6.365h.551V0Z" transform="translate(-2.66 27.36)" fill="#032246"/></svg>