<svg xmlns="http://www.w3.org/2000/svg" width="186.063" height="31.432" viewBox="0 0 186.063 31.432"><path d="M2.542-27.7H8.016v10.558h6.847V-27.7h5.474V0H14.862V-12.32H8.016V0H2.542Zm22.537,6.921H35.84V-4.175h6.754V0H23.631V-4.175H30.4V-16.606H25.079ZM30.4-30.894H35.84v6.346H30.4ZM49.137-8.665V-24.7H43.626v-4.175H54.573V-8.665a5.972,5.972,0,0,0,.761,3.47,3.011,3.011,0,0,0,2.579,1.021h4.342V0H56.391q-3.878,0-5.566-2T49.137-8.665Zm20.978,0V-24.7H64.6v-4.175H75.551V-8.665a5.972,5.972,0,0,0,.761,3.47,3.011,3.011,0,0,0,2.579,1.021h4.342V0H77.369Q73.491,0,71.8-2T70.114-8.665Zm33.3-4.212V0H99.98V-12.877A6.919,6.919,0,0,0,99-17a3.592,3.592,0,0,0-3.08-1.317,4.35,4.35,0,0,0-3.683,1.7,7.93,7.93,0,0,0-1.29,4.871V0H87.53V-28.871h3.414v11.207a6.43,6.43,0,0,1,2.468-2.7,7.142,7.142,0,0,1,3.692-.918,5.549,5.549,0,0,1,4.741,2.087Q103.413-17.107,103.413-12.877Zm12.907-5.511a4.413,4.413,0,0,0-3.934,2.022,10.946,10.946,0,0,0-1.336,5.993,10.954,10.954,0,0,0,1.336,5.984,4.407,4.407,0,0,0,3.934,2.032,4.424,4.424,0,0,0,3.952-2.032,10.954,10.954,0,0,0,1.336-5.984,10.946,10.946,0,0,0-1.336-5.993A4.43,4.43,0,0,0,116.319-18.388Zm0-2.895a8.053,8.053,0,0,1,6.615,2.8q2.292,2.8,2.292,8.108,0,5.325-2.282,8.118A8.059,8.059,0,0,1,116.319.538a8.038,8.038,0,0,1-6.605-2.792q-2.282-2.792-2.282-8.118,0-5.307,2.282-8.108A8.026,8.026,0,0,1,116.319-21.282ZM129.486-7.867V-20.744H132.9V-7.867a6.869,6.869,0,0,0,.993,4.119,3.6,3.6,0,0,0,3.071,1.317,4.344,4.344,0,0,0,3.692-1.7A7.973,7.973,0,0,0,141.936-9V-20.744h3.433V0h-3.433V-3.117A6.45,6.45,0,0,1,139.459-.39a7.062,7.062,0,0,1-3.665.928,5.544,5.544,0,0,1-4.75-2.087Q129.486-3.637,129.486-7.867ZM164.9-20.058v3.34a13.008,13.008,0,0,0-2.95-1.28,10.893,10.893,0,0,0-3.024-.427,6.372,6.372,0,0,0-3.46.751,2.555,2.555,0,0,0-1.141,2.292,2.507,2.507,0,0,0,.854,2.078,11.636,11.636,0,0,0,4.249,1.336l1.373.26a6.691,6.691,0,0,1,3.85,1.93,5.4,5.4,0,0,1,1.308,3.767A5.8,5.8,0,0,1,163.767-1.2,9.565,9.565,0,0,1,157.681.538a17.105,17.105,0,0,1-3.229-.325A29.522,29.522,0,0,1,150.8-.761V-4.286a19.756,19.756,0,0,0,3.655,1.475,12.185,12.185,0,0,0,3.3.492,5.813,5.813,0,0,0,3.507-.918,3.012,3.012,0,0,0,1.243-2.57q0-2.375-4.546-3.284l-.148-.037-1.28-.26a8.17,8.17,0,0,1-4.3-1.939,5.047,5.047,0,0,1-1.354-3.72,5.573,5.573,0,0,1,2.022-4.611,9.017,9.017,0,0,1,5.771-1.624,16.43,16.43,0,0,1,3.21.306A16.2,16.2,0,0,1,164.9-20.058ZM188.6-12.1v1.67H173.817v.111q-.148,4.249,1.624,6.1a6.587,6.587,0,0,0,5,1.855,12.186,12.186,0,0,0,3.414-.52,20.944,20.944,0,0,0,3.8-1.577v3.4A23.03,23.03,0,0,1,183.9.139a16.23,16.23,0,0,1-3.5.4,9.881,9.881,0,0,1-7.57-2.9q-2.728-2.9-2.728-8.006a11.425,11.425,0,0,1,2.672-7.941,9.116,9.116,0,0,1,7.125-2.969,7.793,7.793,0,0,1,6.262,2.69A10.332,10.332,0,0,1,188.6-12.1Zm-3.414-1a6.617,6.617,0,0,0-1.568-3.72,4.818,4.818,0,0,0-3.869-1.568,5.438,5.438,0,0,0-4.063,1.633,5.758,5.758,0,0,0-1.744,3.674Z" transform="translate(-2.542 30.894)" fill="#032246"/></svg>